<svg height="512pt" viewBox="0 -107 512 512" width="512pt" xmlns="http://www.w3.org/2000/svg"><path d="m362.667969 298.667969h-48c-8.832031 0-16-7.167969-16-16s7.167969-16 16-16h48c64.703125 0 117.332031-52.652344 117.332031-117.335938 0-64.679687-52.628906-117.332031-117.332031-117.332031h-48c-8.832031 0-16-7.167969-16-16s7.167969-16 16-16h48c82.34375 0 149.332031 67.007812 149.332031 149.332031 0 82.328125-66.988281 149.335938-149.332031 149.335938zm0 0"/><path d="m197.332031 298.667969h-48c-82.34375 0-149.332031-67.007813-149.332031-149.335938 0-82.324219 66.988281-149.332031 149.332031-149.332031h48c8.832031 0 16 7.167969 16 16s-7.167969 16-16 16h-48c-64.703125 0-117.332031 52.652344-117.332031 117.332031 0 64.683594 52.628906 117.335938 117.332031 117.335938h48c8.832031 0 16 7.167969 16 16s-7.167969 16-16 16zm0 0"/><path d="m325.332031 165.332031h-138.664062c-8.832031 0-16-7.167969-16-16s7.167969-16 16-16h138.664062c8.832031 0 16 7.167969 16 16s-7.167969 16-16 16zm0 0"/></svg>